<svg width="283" height="107" viewBox="0 0 283 107" fill="none" xmlns="http://www.w3.org/2000/svg">
<path d="M56.3011 74.8015C55.9944 79.9297 56.84 85.0614 58.7757 89.8201C33.3464 105.18 20.2904 98.2681 13.4637 87.6868C6.50697 75.9567 6.24753 61.4284 12.7811 49.4575C20.1324 34.0137 30.8304 20.4007 44.0984 9.60678C51.1979 13.7436 58.7973 16.9555 66.7118 19.1641C60.5489 37.1035 57.0416 55.8475 56.3011 74.8015Z" fill="#9D27B0" stroke="black" stroke-width="15"/>
<path d="M269.122 87.6868C262.296 98.2682 249.24 105.18 223.81 89.8202C225.746 85.0615 226.592 79.9297 226.285 74.8015C225.545 55.8475 222.037 37.1035 215.874 19.1642C223.789 16.9555 231.388 13.7436 238.488 9.60681C251.756 20.4008 262.454 34.0138 269.805 49.4575C276.339 61.4285 276.079 75.9567 269.122 87.6868Z" fill="#9D27B0"/>
<path d="M269.805 49.4575C262.454 34.0138 251.756 20.4008 238.488 9.60681C233.119 12.7652 227.437 15.3563 221.532 17.338C230.794 26.7338 238.453 37.5842 244.205 49.4575C250.739 61.4285 250.479 75.9567 243.523 87.6868C241.505 90.9318 238.77 93.6702 235.527 95.6911C253.404 102.714 263.439 96.5018 269.123 87.6868C276.079 75.9567 276.339 61.4285 269.805 49.4575Z" fill="#6A1B9A"/>
<path d="M269.122 87.6868C262.296 98.2682 249.24 105.18 223.81 89.8202C225.746 85.0615 226.592 79.9297 226.285 74.8015C225.545 55.8475 222.037 37.1035 215.874 19.1642C223.789 16.9555 231.388 13.7436 238.488 9.60681C251.756 20.4008 262.454 34.0138 269.805 49.4575C276.339 61.4285 276.079 75.9567 269.122 87.6868V87.6868Z" stroke="black" stroke-width="15"/>
</svg>
