<svg width="186" height="119" viewBox="0 0 186 119" fill="none" xmlns="http://www.w3.org/2000/svg">
<path d="M178.285 64.8015C178.592 69.9297 177.746 75.0614 175.81 79.8201C174.965 82.1503 173.818 84.3594 172.397 86.3908C170.497 89.2153 168.131 91.6968 165.4 93.7295C149.737 104.072 131.509 109.862 112.749 110.455C106.776 110.967 100.376 111.223 93.2931 111.223C86.2105 111.223 79.8105 110.967 73.8371 110.455C55.0768 109.862 36.8496 104.072 21.1865 93.7295C18.4555 91.6968 16.0895 89.2153 14.1891 86.3908C12.7687 84.3594 11.6211 82.1503 10.7758 79.8201C8.83999 75.0614 7.99442 69.9297 8.30112 64.8015C9.0416 45.8475 12.5489 27.1035 18.7118 9.16412C43.0725 15.3376 68.1732 18.0947 93.2931 17.3561C118.413 18.0947 143.514 15.3376 167.874 9.16412C174.037 27.1035 177.545 45.8475 178.285 64.8015Z" fill="#E91E63"/>
<path d="M167.874 9.16412C159.996 11.4092 151.969 13.0972 143.853 14.2158C148.986 30.6214 151.956 47.627 152.685 64.8015C152.992 69.9297 152.146 75.0614 150.21 79.8201C149.365 82.1503 148.217 84.3594 146.797 86.3908C144.897 89.2153 142.531 91.6968 139.8 93.7295C124.137 104.072 105.909 109.862 87.149 110.455C85.0157 110.634 82.7458 110.745 80.493 110.864C84.5464 111.078 88.7448 111.223 93.293 111.223C100.376 111.223 106.776 110.967 112.749 110.455C131.509 109.862 149.737 104.072 165.4 93.7295C168.131 91.6968 170.497 89.2153 172.397 86.3908C173.817 84.3594 174.965 82.1503 175.81 79.8201C177.746 75.0614 178.592 69.9297 178.285 64.8015C177.545 45.8475 174.037 27.1035 167.874 9.16412Z" fill="#AD1457"/>
<path d="M178.285 64.8015C178.592 69.9297 177.746 75.0614 175.81 79.8201C174.965 82.1503 173.818 84.3594 172.397 86.3908C170.497 89.2154 168.131 91.6968 165.4 93.7295C149.737 104.072 131.509 109.862 112.749 110.455C106.776 110.967 100.376 111.223 93.2931 111.223C86.2105 111.223 79.8105 110.967 73.8371 110.455C55.0768 109.862 36.8496 104.072 21.1865 93.7295C18.4555 91.6968 16.0895 89.2154 14.1891 86.3908C12.7687 84.3594 11.6211 82.1503 10.7758 79.8201C8.83999 75.0614 7.99442 69.9297 8.30112 64.8015C9.0416 45.8475 12.5489 27.1035 18.7118 9.16412C43.0725 15.3376 68.1732 18.0947 93.2931 17.3561C118.413 18.0947 143.514 15.3376 167.874 9.16412C174.037 27.1035 177.545 45.8475 178.285 64.8015Z" stroke="black" stroke-width="15"/>
<path d="M101.826 60.0228H84.7597C80.0469 60.0228 76.2264 63.8433 76.2264 68.5561C76.2264 73.269 80.0469 77.0895 84.7597 77.0895H101.826C106.539 77.0895 110.36 73.269 110.36 68.5561C110.36 63.8433 106.539 60.0228 101.826 60.0228Z" fill="black"/>
</svg>
