<svg width="272" height="220" viewBox="0 0 272 220" fill="none" xmlns="http://www.w3.org/2000/svg">
<path d="M264.293 109.956C264.293 145.113 264.293 176.175 233.488 194.607C226.388 198.744 218.789 201.955 210.874 204.164C186.514 210.338 161.413 213.095 136.293 212.356C111.173 213.095 86.0725 210.338 61.7118 204.164C53.7974 201.955 46.1979 198.744 39.0984 194.607C8.29309 176.175 8.29309 145.113 8.29309 109.956C8.29309 62.6815 48.3144 22.9161 102.672 11.1401C113.721 8.76448 124.991 7.56314 136.293 7.55612C142.31 7.54965 148.321 7.89155 154.298 8.58012C216.421 15.5775 264.293 58.2441 264.293 109.956Z" fill="#FFE0B2"/>
<path d="M154.298 8.58012C148.321 7.89155 142.31 7.54965 136.293 7.55612C132.24 7.55612 128.297 7.90599 124.346 8.20466C125.797 8.33266 127.265 8.40945 128.707 8.58012C190.821 15.5775 238.693 58.2441 238.693 109.956C238.693 145.113 238.693 176.175 207.888 194.607C200.788 198.744 193.189 201.955 185.274 204.164C165.103 209.443 144.343 212.138 123.493 212.185C127.623 212.288 131.864 212.356 136.293 212.356C161.413 213.095 186.514 210.338 210.874 204.164C218.789 201.955 226.388 198.744 233.488 194.607C264.293 176.175 264.293 145.113 264.293 109.956C264.293 58.2441 216.421 15.5775 154.298 8.58012Z" fill="#DFC49C"/>
<path d="M264.293 109.956C264.293 145.113 264.293 176.175 233.488 194.607C226.388 198.744 218.789 201.955 210.874 204.164C186.514 210.338 161.413 213.095 136.293 212.356C111.173 213.095 86.0725 210.338 61.7118 204.164C53.7974 201.955 46.1979 198.744 39.0984 194.607C8.29309 176.175 8.29309 145.113 8.29309 109.956C8.29309 62.6815 48.3144 22.9161 102.672 11.1401C113.721 8.76448 124.991 7.56314 136.293 7.55612C142.31 7.54965 148.321 7.89155 154.298 8.58012C216.421 15.5775 264.293 58.2441 264.293 109.956Z" stroke="black" stroke-width="15"/>
<path d="M80.8264 169.689C92.6085 169.689 102.16 160.138 102.16 148.356C102.16 136.574 92.6085 127.023 80.8264 127.023C69.0443 127.023 59.4931 136.574 59.4931 148.356C59.4931 160.138 69.0443 169.689 80.8264 169.689Z" fill="#3F51B5"/>
<path d="M191.76 169.689C203.542 169.689 213.093 160.138 213.093 148.356C213.093 136.574 203.542 127.023 191.76 127.023C179.978 127.023 170.426 136.574 170.426 148.356C170.426 160.138 179.978 169.689 191.76 169.689Z" fill="#3F51B5"/>
<path d="M50.9597 169.689C50.9597 174.402 54.7802 178.223 59.4931 178.223H102.16C106.873 178.223 110.693 174.402 110.693 169.689C110.658 166.873 109.209 164.262 106.836 162.743C109.33 158.356 110.658 153.403 110.693 148.356C110.693 131.861 97.3213 118.489 80.8264 118.489C64.3315 118.489 50.9597 131.861 50.9597 148.356C50.9951 153.403 52.323 158.356 54.8168 162.743C52.4442 164.262 50.9947 166.873 50.9597 169.689ZM80.8264 135.556C87.8956 135.556 93.6264 141.287 93.6264 148.356C93.6264 155.425 87.8956 161.156 80.8264 161.156C73.7571 161.156 68.0264 155.425 68.0264 148.356C68.0264 141.287 73.7571 135.556 80.8264 135.556Z" fill="black"/>
<path d="M161.893 169.689C161.893 174.402 165.714 178.223 170.427 178.223H213.093C217.806 178.223 221.627 174.402 221.627 169.689C221.592 166.873 220.142 164.262 217.769 162.743C220.263 158.356 221.591 153.403 221.627 148.356C221.627 131.861 208.255 118.489 191.76 118.489C175.265 118.489 161.893 131.861 161.893 148.356C161.929 153.403 163.256 158.356 165.75 162.743C163.378 164.262 161.928 166.873 161.893 169.689ZM191.76 135.556C198.829 135.556 204.56 141.287 204.56 148.356C204.56 155.425 198.829 161.156 191.76 161.156C184.691 161.156 178.96 155.425 178.96 148.356C178.96 141.287 184.691 135.556 191.76 135.556Z" fill="black"/>
</svg>
