<svg width="636" height="1148" viewBox="0 0 636 1148" fill="none" xmlns="http://www.w3.org/2000/svg">
<rect x="513.896" y="108" width="29" height="400" fill="#825A2C" stroke="black" stroke-width="15"/>
<path d="M553.266 524.075L519.132 541.142C510.753 544.991 500.832 541.488 496.727 533.231C492.622 524.975 495.817 514.95 503.943 510.592L538.076 493.526C543.56 490.585 550.211 490.862 555.431 494.249C560.651 497.636 563.615 503.595 563.164 509.802C562.713 516.008 558.921 521.478 553.266 524.075V524.075Z" fill="#A0522D" stroke="black" stroke-width="15"/>
<path d="M553.266 600.529L519.132 617.595C510.753 621.444 500.832 617.941 496.727 609.685C492.622 601.428 495.817 591.404 503.943 587.046L538.076 569.979C543.56 567.039 550.211 567.316 555.431 570.702C560.651 574.089 563.615 580.049 563.164 586.256C562.713 592.462 558.921 597.931 553.266 600.529V600.529Z" fill="#A0522D" stroke="black" stroke-width="15"/>
<path d="M553.266 562.219L519.132 579.286C513.648 582.227 506.998 581.95 501.778 578.563C496.558 575.176 493.594 569.216 494.045 563.01C494.495 556.803 498.288 551.334 503.943 548.736L538.077 531.67C543.561 528.729 550.211 529.006 555.431 532.393C560.651 535.78 563.615 541.739 563.164 547.946C562.714 554.152 558.921 559.622 553.266 562.219V562.219Z" fill="#825A2C" stroke="black" stroke-width="15"/>
<path d="M341.118 107.538L85.1317 346.665L51 310.127L306.986 71L341.118 107.538Z" fill="#C4C4C4" stroke="black" stroke-width="15"/>
<path fill-rule="evenodd" clip-rule="evenodd" d="M628 23C628 14.7157 621.284 8 613 8H23.0001C14.7158 8 8.00006 14.7157 8.00006 23V108L8 1125C8 1133.28 14.7157 1140 23 1140H93C101.284 1140 108 1133.28 108 1125L108 123C108 114.716 114.716 108 123 108H613C621.284 108 628 101.284 628 93V23Z" fill="#56412A"/>
<path d="M8.00006 108H15.5001H8.00006ZM108 1125H100.5H108ZM23.0001 15.5H613V0.5H23.0001V15.5ZM15.5001 108V23H0.500059V108H15.5001ZM15.5 1125L15.5001 108H0.500059L0.5 1125H15.5ZM93 1132.5H23V1147.5H93V1132.5ZM100.5 123L100.5 1125H115.5L115.5 123H100.5ZM613 100.5H123V115.5H613V100.5ZM620.5 23V93H635.5V23H620.5ZM613 115.5C625.426 115.5 635.5 105.426 635.5 93H620.5C620.5 97.1421 617.142 100.5 613 100.5V115.5ZM93 1147.5C105.426 1147.5 115.5 1137.43 115.5 1125H100.5C100.5 1129.14 97.1421 1132.5 93 1132.5V1147.5ZM0.5 1125C0.499999 1137.43 10.5736 1147.5 23 1147.5V1132.5C18.8579 1132.5 15.5 1129.14 15.5 1125H0.5ZM613 15.5C617.142 15.5 620.5 18.8579 620.5 23H635.5C635.5 10.5736 625.427 0.5 613 0.5V15.5ZM115.5 123C115.5 118.858 118.858 115.5 123 115.5V100.5C110.574 100.5 100.5 110.574 100.5 123H115.5ZM23.0001 0.5C10.5737 0.5 0.500059 10.5736 0.500059 23H15.5001C15.5001 18.8579 18.8579 15.5 23.0001 15.5V0.5Z" fill="black"/>
</svg>
