<svg width="186" height="139" viewBox="0 0 186 139" fill="none" xmlns="http://www.w3.org/2000/svg">
<path d="M73.837 44.4548C72.8984 80.3801 66.4984 102.14 60.0984 114.94C55.5811 124.39 46.0814 130.448 35.6077 130.556C34.7819 130.57 33.9559 130.542 33.133 130.471C19.5782 128.712 9.22795 117.499 8.55704 103.847C7.39826 75.9062 9.28673 47.9224 14.189 20.3908C16.0894 23.2154 18.4554 25.6968 21.1864 27.7295C36.8495 38.072 55.0767 43.8622 73.837 44.4548Z" fill="#3F51B5" stroke="black" stroke-width="15"/>
<path d="M178.029 103.847C177.358 117.499 167.008 128.712 153.453 130.471C152.63 130.542 151.804 130.57 150.978 130.556C140.505 130.448 131.005 124.39 126.488 114.94C120.088 102.14 113.688 80.3801 112.749 44.4548C131.509 43.8622 149.737 38.072 165.4 27.7295C168.131 25.6968 170.497 23.2154 172.397 20.3908C177.299 47.9224 179.188 75.9062 178.029 103.847Z" fill="#3F51B5"/>
<path d="M172.397 20.3908C170.497 23.2154 168.131 25.6968 165.4 27.7295C160.404 31.348 154.952 34.2918 149.186 36.4847C152.489 58.7766 153.575 81.3408 152.429 103.847C151.804 113.519 146.416 122.249 138.05 127.143C141.997 129.366 146.448 130.541 150.978 130.556C151.804 130.57 152.63 130.542 153.453 130.471C167.008 128.712 177.358 117.499 178.029 103.847C179.188 75.9062 177.299 47.9224 172.397 20.3908Z" fill="#283593"/>
<path d="M178.029 103.847C177.358 117.499 167.008 128.712 153.453 130.471C152.63 130.542 151.804 130.57 150.978 130.556C140.505 130.448 131.005 124.39 126.488 114.94C120.088 102.14 113.688 80.3801 112.749 44.4548C131.509 43.8622 149.737 38.072 165.4 27.7295C168.131 25.6968 170.497 23.2154 172.397 20.3908C177.299 47.9224 179.188 75.9062 178.029 103.847V103.847Z" stroke="black" stroke-width="15"/>
</svg>
