<svg width="85" height="527" viewBox="0 0 85 527" fill="none" xmlns="http://www.w3.org/2000/svg">
<rect x="27.8963" y="8" width="29" height="400" fill="#825A2C" stroke="black" stroke-width="15"/>
<path d="M67.2658 424.075L33.1325 441.142C24.7533 444.991 14.8321 441.488 10.7269 433.231C6.62165 424.975 9.81698 414.95 17.9431 410.592L52.0765 393.526C57.5605 390.585 64.2105 390.862 69.4309 394.249C74.6513 397.636 77.6146 403.595 77.164 409.802C76.7135 416.008 72.9206 421.478 67.2658 424.075Z" fill="#A0522D" stroke="black" stroke-width="15"/>
<path d="M67.2658 500.529L33.1325 517.595C24.7533 521.444 14.8321 517.941 10.7269 509.685C6.62165 501.428 9.81698 491.404 17.9431 487.046L52.0765 469.979C57.5605 467.039 64.2105 467.316 69.4309 470.702C74.6513 474.089 77.6146 480.049 77.164 486.256C76.7135 492.462 72.9206 497.931 67.2658 500.529Z" fill="#A0522D" stroke="black" stroke-width="15"/>
<path d="M67.2658 462.219L33.1325 479.286C27.6485 482.227 20.9984 481.95 15.778 478.563C10.5576 475.176 7.5944 469.216 8.04493 463.01C8.49547 456.803 12.2883 451.334 17.9432 448.736L52.0765 431.67C57.5605 428.729 64.2106 429.006 69.431 432.393C74.6514 435.78 77.6146 441.739 77.1641 447.946C76.7135 454.152 72.9206 459.622 67.2658 462.219Z" fill="#825A2C" stroke="black" stroke-width="15"/>
</svg>
